<svg xmlns="http://www.w3.org/2000/svg" viewBox="0 0 227 261"><defs><style>.a{fill:#005ba5;opacity:0.35;}</style></defs><path class="a" d="M31.13,261a30.33,30.33,0,0,1-13.77-3.36A31.88,31.88,0,0,1,0,228.92V31.12A31,31,0,0,1,17.29,3.48,31,31,0,0,1,49.83,5.92h0c44.64,31.9,104.66,68.52,160.56,98A31.76,31.76,0,0,1,227,132.29a29.93,29.93,0,0,1-16.61,26.65C162.58,184.12,101,217.8,48.91,255.05A30,30,0,0,1,31.13,261ZM31.72,1a30.87,30.87,0,0,0-14,3.37A30,30,0,0,0,1,31.12v197.8a30.89,30.89,0,0,0,16.81,27.83,28.68,28.68,0,0,0,30.5-2.51c52.17-37.29,113.77-71,161.61-96.18A29,29,0,0,0,226,132.27a30.77,30.77,0,0,0-16.09-27.5c-55.93-29.45-116-66.1-160.66-98h0A29.5,29.5,0,0,0,31.72,1Z"/></svg>