<svg xmlns="http://www.w3.org/2000/svg" viewBox="0 0 22 21.84"><defs><style>.a{fill:#656666;}</style></defs><path class="a" d="M13.22,20l-.55.12a.89.89,0,0,0-.71,1,.93.93,0,0,0,.36.56.92.92,0,0,0,.67.15q.33-.06.66-.15A.88.88,0,1,0,13.22,20Z"/><path class="a" d="M19.76,8.1a.89.89,0,0,0,.33.45.91.91,0,0,0,.79.12.89.89,0,0,0,.56-1.12c-.07-.21-.15-.43-.23-.63a.88.88,0,0,0-1.64.65C19.64,7.75,19.7,7.93,19.76,8.1Z"/><path class="a" d="M16.1,18.7l-.48.29a.89.89,0,0,0-.33,1.21,1,1,0,0,0,.26.28.88.88,0,0,0,.95,0l.57-.35a.88.88,0,0,0-1-1.47Z"/><path class="a" d="M22,10.57a.89.89,0,0,0-1.77.07c0,.19,0,.38,0,.57a.89.89,0,0,0,.37.74.84.84,0,0,0,.49.16.89.89,0,0,0,.91-.87C22,11,22,10.8,22,10.57Z"/><path class="a" d="M19.62,16.37a.88.88,0,0,0-1.24.18c-.11.15-.23.29-.35.44a.87.87,0,0,0,.1,1.24l.06.05a.9.9,0,0,0,1.19-.15c.14-.17.28-.34.41-.52A.88.88,0,0,0,19.62,16.37Z"/><path class="a" d="M20.92,13.17a.9.9,0,0,0-1.11.58l-.18.53a.88.88,0,0,0,.31,1,.75.75,0,0,0,.2.1.88.88,0,0,0,1.14-.51c.08-.21.15-.42.22-.63A.9.9,0,0,0,20.92,13.17Z"/><path class="a" d="M9.36,20.09a9.19,9.19,0,0,1-2.26-.73h0c-.17-.08-.34-.16-.5-.25h0a7.53,7.53,0,0,1-.88-.55A9.22,9.22,0,0,1,3.46,5.69,9,9,0,0,1,5.72,3.43l0,0a9.25,9.25,0,0,1,10.36-.09l-.69,1c-.2.28-.08.48.26.45l3-.27a.49.49,0,0,0,.45-.64L18.33,1C18.24.63,18,.59,17.82.87l-.7,1a10.93,10.93,0,0,0-8-1.71L8.28.34h0a10.93,10.93,0,0,0-6,4.06l0,0L2,4.66,1.78,5l0,0A11,11,0,0,0,0,11.48v0c0,.22,0,.45,0,.67,0,0,0,0,0,0,0,.22.06.45.09.67A11,11,0,0,0,3.24,18.8h0A10.75,10.75,0,0,0,4.67,20a11,11,0,0,0,4.38,1.84.9.9,0,0,0,1-.72A.88.88,0,0,0,9.36,20.09Z"/><path class="a" d="M10.46,3.85a.72.72,0,0,0-.72.72V11.7l6.52,3.37a.8.8,0,0,0,.33.08.71.71,0,0,0,.33-1.35l-5.75-3V4.57A.72.72,0,0,0,10.46,3.85Z"/></svg>