<svg xmlns="http://www.w3.org/2000/svg" viewBox="0 0 15.75 18.92"><defs><style>.a{fill:#c7224c;}</style></defs><path class="a" d="M7.88,18.92a.7.7,0,0,1-.42-.13C7.15,18.59,0,13.75,0,7.88A7.89,7.89,0,0,1,7.88,0a7.89,7.89,0,0,1,7.87,7.88c0,5.87-7.15,10.71-7.46,10.91A.69.69,0,0,1,7.88,18.92Zm0-17.42A6.38,6.38,0,0,0,1.5,7.88c0,4.33,4.9,8.28,6.37,9.37,1.48-1.1,6.38-5.05,6.38-9.37A6.38,6.38,0,0,0,7.88,1.5Z"/><path class="a" d="M7.88,11A3.13,3.13,0,1,1,11,7.88,3.13,3.13,0,0,1,7.88,11Zm0-4.75A1.63,1.63,0,1,0,9.5,7.88,1.63,1.63,0,0,0,7.88,6.25Z"/></svg>