<svg xmlns="http://www.w3.org/2000/svg" viewBox="0 0 16 16"><defs><style>.a{fill:#fff;}</style></defs><path class="a" d="M7.25,9.25A.47.47,0,0,1,6.9,9.1a.48.48,0,0,1,0-.7L15.15.15a.48.48,0,0,1,.7,0,.48.48,0,0,1,0,.7L7.6,9.1A.47.47,0,0,1,7.25,9.25Z"/><path class="a" d="M10.25,16a.49.49,0,0,1-.46-.3L6.87,9.13.3,6.21A.49.49,0,0,1,0,5.73a.51.51,0,0,1,.33-.45L15.33,0a.48.48,0,0,1,.52.12A.48.48,0,0,1,16,.67l-5.25,15a.5.5,0,0,1-.45.33ZM1.86,5.81,7.45,8.29a.51.51,0,0,1,.26.26l2.48,5.6L14.68,1.32Z"/></svg>