<svg xmlns="http://www.w3.org/2000/svg" viewBox="0 0 14 14"><defs><style>.a{fill:#fff;}</style></defs><path class="a" d="M12.19,14H12a13.41,13.41,0,0,1-5.87-2.08A13.36,13.36,0,0,1,2.09,7.85,13.45,13.45,0,0,1,0,2a1.68,1.68,0,0,1,.08-.74A1.88,1.88,0,0,1,.47.59,1.9,1.9,0,0,1,1.08.15,1.8,1.8,0,0,1,1.81,0h2a1.81,1.81,0,0,1,1.8,1.55A7.69,7.69,0,0,0,6,3.28a1.74,1.74,0,0,1,.07,1,1.69,1.69,0,0,1-.48.89L5,5.74A10,10,0,0,0,8.25,9l.56-.56a1.77,1.77,0,0,1,.89-.48,1.83,1.83,0,0,1,1,.07,7.43,7.43,0,0,0,1.73.43A1.85,1.85,0,0,1,13.57,9,1.8,1.8,0,0,1,14,10.24v1.95a1.83,1.83,0,0,1-.15.73,1.84,1.84,0,0,1-1.08,1A1.9,1.9,0,0,1,12.19,14ZM3.78,1h-2a.72.72,0,0,0-.33.07.83.83,0,0,0-.27.19A.77.77,0,0,0,1,1.55a.91.91,0,0,0,0,.33A12.5,12.5,0,0,0,2.93,7.31,12.41,12.41,0,0,0,6.7,11.07,12.58,12.58,0,0,0,12.13,13a.91.91,0,0,0,.32,0,1.05,1.05,0,0,0,.29-.17.83.83,0,0,0,.19-.27.78.78,0,0,0,.07-.33v-2h0a.81.81,0,0,0-.19-.54.84.84,0,0,0-.5-.28,8.83,8.83,0,0,1-2-.48.69.69,0,0,0-.45,0,.78.78,0,0,0-.4.21l-.83.83a.5.5,0,0,1-.6.08A11,11,0,0,1,4,5.91a.5.5,0,0,1,.08-.6l.83-.83a.79.79,0,0,0,.22-.4.78.78,0,0,0,0-.45,9.33,9.33,0,0,1-.48-1.94.83.83,0,0,0-.27-.49A.81.81,0,0,0,3.78,1Z"/></svg>