<svg xmlns="http://www.w3.org/2000/svg" viewBox="0 0 30.05 29.77"><defs><style>.a{fill:#c7224c;}</style></defs><path class="a" d="M15.22,10.51A3.28,3.28,0,0,0,12.15,14a3.28,3.28,0,0,0,3.07,3.47A3.28,3.28,0,0,0,18.28,14,3.28,3.28,0,0,0,15.22,10.51Zm0,5.28A1.73,1.73,0,0,1,13.61,14a1.72,1.72,0,0,1,1.61-1.81A1.72,1.72,0,0,1,16.82,14,1.73,1.73,0,0,1,15.22,15.79Z"/><path class="a" d="M27.44,2.59,7.52,0a2.55,2.55,0,0,0-2.16.7A3.28,3.28,0,0,0,4.31,2.88L3.94,6.26H2.81C1.21,6.26,0,7.87,0,9.68V26.55a3,3,0,0,0,2.7,3.22H22.84a3.18,3.18,0,0,0,3.07-3.22v-.66a3.39,3.39,0,0,0,1.38-.66A3.58,3.58,0,0,0,28.35,23L30,6.26A3.26,3.26,0,0,0,27.44,2.59Zm-3,24a1.62,1.62,0,0,1-1.61,1.57h-20a1.4,1.4,0,0,1-1.35-1.44V23.5l5.66-4.7a1.6,1.6,0,0,1,2.26.12l4,4a3.24,3.24,0,0,0,2.15.91,3,3,0,0,0,1.75-.54l7.19-4.7v8Zm0-9.94-8,5.24a1.69,1.69,0,0,1-2.15-.21l-4-4a3,3,0,0,0-4-.16l-4.82,4V9.68c0-.91.55-1.77,1.35-1.77h20a1.79,1.79,0,0,1,1.61,1.77ZM28.57,6h0L26.86,22.8a1.5,1.5,0,0,1-.48,1.11c-.14.17-.47.25-.47.33V9.68a3.36,3.36,0,0,0-3.07-3.42H5.4L5.73,3A1.94,1.94,0,0,1,6.28,2a1.51,1.51,0,0,1,1.09-.33l19.89,2.6A1.6,1.6,0,0,1,28.57,6Z"/></svg>