<svg xmlns="http://www.w3.org/2000/svg" viewBox="0 0 24 23"><defs><style>.a{fill:#0056a3;}</style></defs><path class="a" d="M10.78,20.67A10.58,10.58,0,0,1,0,10.33,10.57,10.57,0,0,1,10.78,0,10.57,10.57,0,0,1,21.55,10.33,10.57,10.57,0,0,1,10.78,20.67ZM10.78,2A8.58,8.58,0,0,0,2,10.33a8.58,8.58,0,0,0,8.78,8.34,8.57,8.57,0,0,0,8.77-8.34A8.57,8.57,0,0,0,10.78,2Z"/><path class="a" d="M23,23a1,1,0,0,1-.69-.28L17,17.65a1,1,0,0,1,0-1.41,1,1,0,0,1,1.42,0l5.31,5.08a1,1,0,0,1,0,1.41A1,1,0,0,1,23,23Z"/></svg>