<svg xmlns="http://www.w3.org/2000/svg" viewBox="0 0 10.24 49.36"><defs><style>.a,.b{fill:#40403b;}.a{isolation:isolate;opacity:0.5;}</style></defs><path class="a" d="M2.19,13.72H.27q-.36,0-.24-.45L3.19.45A.69.69,0,0,1,3.41.11.52.52,0,0,1,3.79,0H6.45A.52.52,0,0,1,6.83.1a.62.62,0,0,1,.22.35l3.16,12.82q.12.45-.24.45H8.05a.44.44,0,0,1-.16,0,.29.29,0,0,1-.14-.08.7.7,0,0,1-.12-.35l-.56-2.35H3.17l-.56,2.35a.71.71,0,0,1-.13.35A.4.4,0,0,1,2.19,13.72ZM5.09,2.59,3.65,8.75h3L5.17,2.59Z"/><path class="b" d="M2.75,32.91H1.22c-.2,0-.26-.12-.2-.36L3.55,22.3A.47.47,0,0,1,3.73,22a.43.43,0,0,1,.3-.09H6.16a.39.39,0,0,1,.31.08.45.45,0,0,1,.17.28L9.17,32.55c.06.24,0,.36-.19.36H7.31a.41.41,0,0,1-.11-.07.56.56,0,0,1-.1-.28l-.44-1.88H3.54l-.45,1.88a.56.56,0,0,1-.1.28.24.24,0,0,1-.11.06A.3.3,0,0,1,2.75,32.91ZM5.07,24,3.92,28.93H6.29L5.14,24Z"/><path class="a" d="M3.31,49.36H2.16c-.14,0-.19-.09-.14-.27l1.9-7.69a.35.35,0,0,1,.13-.2.33.33,0,0,1,.23-.07h1.6a.32.32,0,0,1,.23.06.38.38,0,0,1,.13.21l1.89,7.69q.07.27-.15.27H6.73l-.08-.05a.4.4,0,0,1-.07-.21l-.34-1.41H3.9l-.33,1.41a.49.49,0,0,1-.08.21A.28.28,0,0,1,3.31,49.36Zm1.74-6.68-.86,3.69H6L5.1,42.68Z"/></svg>