<svg xmlns="http://www.w3.org/2000/svg" viewBox="0 0 28 17.46"><defs><style>.a{fill:#fff;}</style></defs><path class="a" d="M27.64,1.9a.8.8,0,0,0-.76-.08L19.21,4.88V2.58A2.58,2.58,0,0,0,16.64,0H2.58A2.59,2.59,0,0,0,0,2.58v12.3a2.59,2.59,0,0,0,2.58,2.58H16.64a2.58,2.58,0,0,0,2.57-2.58v-2.3l7.67,3.06a.77.77,0,0,0,.3.06.86.86,0,0,0,.46-.14.83.83,0,0,0,.36-.68V2.58A.83.83,0,0,0,27.64,1.9Zm-10.07,13a.94.94,0,0,1-.93.94H2.58a.94.94,0,0,1-.94-.94V2.58a.94.94,0,0,1,.94-.94H16.64a.94.94,0,0,1,.93.94Zm8.79-1.21-7.15-2.86V6.65l7.15-2.86Z"/></svg>