<?xml version="1.0" standalone="no"?><!DOCTYPE svg PUBLIC "-//W3C//DTD SVG 1.1//EN" "http://www.w3.org/Graphics/SVG/1.1/DTD/svg11.dtd" ><svg xmlns="http://www.w3.org/2000/svg"><metadata>Generated by Glyphter</metadata><defs><font id="icon-font" horiz-adv-x="0"><font-face units-per-em="1024" ascent="1024" descent="0" font-family="icon-font" font-weight="normal" /><missing-glyph horiz-adv-x="0" /><glyph unicode="&#x0041;" d="M892.128,0.516C892.128,0.516,878.243,0.516,878.243,0.516C725.294,16.813,578.337,68.916,449.284,152.516C330.534,229.1,229.762,330.603,154.054,449.937C70.455,578.552,18.205,724.998,1.324,877.435C-0.795,895.705,1.178,914.12,7.17,931.512C13.163,949.635,22.882,966.296,35.67,980.473C48.24,994.066,63.366,1004.954,80.247,1012.627C97.055,1019.935,115.251,1023.662,133.593,1023.589C133.593,1023.589,279.746,1023.589,279.746,1023.589C345.734,1023.883,401.784,975.577,411.284,910.32C415.888,867.205,425.461,824.82,439.784,783.897C448.626,760.586,450.38,735.155,444.899,710.821C440.149,686.048,427.872,663.394,409.822,645.783C409.822,645.783,366.707,604.129,366.707,604.129C426.265,507.303,507.599,425.749,604.206,365.899C604.206,365.899,645.129,406.822,645.129,406.822C662.96,424.58,685.54,436.784,710.167,441.899C734.502,447.014,759.859,445.26,783.244,436.784C823.947,421.291,866.405,410.695,909.666,405.361C941.235,402.365,970.685,388.407,992.973,365.899C1014.458,340.761,1025.712,308.388,1024.396,275.284C1024.396,275.284,1024.396,132.785,1024.396,132.785C1024.469,114.443,1020.743,96.247,1013.435,79.439C998.454,45.166,969.808,18.713,934.512,6.363C920.774,2.27,906.451,0.297,892.128,0.516C892.128,0.516,892.128,0.516,892.128,0.516M277.554,950.512C277.554,950.512,131.401,950.512,131.401,950.512C123.07,950.731,114.812,948.977,107.285,945.397C99.832,942.108,93.109,937.431,87.555,931.512C81.636,925.52,77.178,918.285,74.401,910.32C72.939,902.354,72.939,894.17,74.401,886.205C89.893,744.728,138.197,608.879,215.439,489.399C286.323,378.98,380.299,285.223,490.937,214.631C610.491,137.535,746.34,89.304,887.743,73.593C895.489,72.205,903.382,72.205,911.128,73.593C918.801,76.589,925.962,80.755,932.32,86.016C938.239,91.57,942.916,98.293,946.204,105.747C949.639,113.347,951.393,121.531,951.32,129.862C951.32,129.862,951.32,276.015,951.32,276.015C951.32,276.015,951.32,276.015,951.32,276.015C951.685,290.411,946.716,304.442,937.435,315.476C928.008,326.365,915.074,333.599,900.897,335.938C850.986,341.93,801.951,353.696,754.744,371.015C744.075,374.669,732.529,374.669,721.859,371.015C710.825,368.895,700.667,363.561,692.629,355.669C692.629,355.669,631.975,295.015,631.975,295.015C620.356,283.469,602.379,281.057,588.129,289.169C464.776,361.953,363.053,466.453,293.631,591.706C285.519,605.956,287.931,623.933,299.477,635.552C299.477,635.552,360.13,696.205,360.13,696.205C368.242,704.171,373.869,714.328,376.207,725.436C379.423,736.178,379.423,747.578,376.207,758.321C359.473,804.213,347.707,851.712,341.13,900.089C338.865,913.974,331.923,926.616,321.4,935.897C309.342,946.493,293.558,951.754,277.554,950.512C277.554,950.512,277.554,950.512,277.554,950.512" class="icon-phone"/><glyph unicode="&#x0042;" d="M463.092,431.609C454.598,431.482,446.487,434.994,440.739,441.19C427.837,453.324,427.837,473.762,440.739,485.897C440.739,485.897,967.646,1012.804,967.646,1012.804C979.781,1025.705,1000.218,1025.705,1012.353,1012.804C1025.254,1000.669,1025.254,980.231,1012.353,968.097C1012.353,968.097,485.446,441.19,485.446,441.19C479.698,434.994,471.587,431.482,463.092,431.609C463.092,431.609,463.092,431.609,463.092,431.609M654.695,0.504C641.921,0.312,630.297,7.848,625.316,19.664C625.316,19.664,438.823,439.273,438.823,439.273C438.823,439.273,19.213,625.767,19.213,625.767C6.95,630.876,-0.714,643.203,0.053,656.423C0.755,669.324,8.994,680.629,21.129,685.163C21.129,685.163,979.142,1022.384,979.142,1022.384C990.766,1026.791,1003.859,1023.789,1012.353,1014.72C1022.891,1006.353,1026.787,992.111,1021.933,979.593C1021.933,979.593,686.629,21.58,686.629,21.58C682.222,9.381,670.853,1.015,657.888,0.504C657.888,0.504,654.695,0.504,654.695,0.504M118.846,651.314C118.846,651.314,475.866,492.922,475.866,492.922C483.274,489.665,489.214,483.725,492.471,476.317C492.471,476.317,650.863,118.658,650.863,118.658C650.863,118.658,937.628,938.079,937.628,938.079C937.628,938.079,118.846,651.314,118.846,651.314" class="icon-mail"/><glyph unicode="&#x0043;" d="M591.46,0C591.46,0,591.46,467.2,591.46,467.2C591.46,467.2,748.26,467.2,748.26,467.2C748.26,467.2,771.94,648.96,771.94,648.96C771.94,648.96,591.46,648.96,591.46,648.96C591.46,648.96,591.46,765.44,591.46,765.44C591.46,817.92,606.18,853.76,681.7,853.76C681.7,853.76,778.34,853.76,778.34,853.76C778.34,853.76,778.34,1016.96,778.34,1016.96C761.7,1018.88,704.74,1024,638.18,1024C498.66,1024,403.94,938.88,403.94,783.36C403.94,783.36,403.94,648.96,403.94,648.96C403.94,648.96,246.5,648.96,246.5,648.96C246.5,648.96,246.5,467.2,246.5,467.2C246.5,467.2,403.94,467.2,403.94,467.2C403.94,467.2,403.94,0,403.94,0C403.94,0,592.1,0,592.1,0C592.1,0,591.46,0,591.46,0" class="icon-facebook"/><glyph unicode="&#x0044;" d="M1003.034,759.587C991.303,803.999,956.947,838.773,912.536,850.505C832.513,872.291,512.419,872.291,512.419,872.291C512.419,872.291,192.325,872.291,112.301,850.924C67.891,838.773,33.116,803.999,21.385,759.587C6.721,677.89,-0.402,594.514,0.017,511.558C-0.402,428.183,6.721,345.227,21.385,263.527C33.116,219.536,67.891,185.179,111.883,173.868C191.906,152.5,512,152.5,512,152.5C512,152.5,832.094,152.5,912.117,173.868C956.11,185.179,990.884,219.536,1002.615,263.527C1017.279,345.227,1024.402,428.602,1023.983,511.558C1024.402,594.933,1017.279,677.89,1002.615,759.587C1002.615,759.587,1002.615,759.587,1002.615,759.587C1002.615,759.587,1003.034,759.587,1003.034,759.587M407.257,359.052C407.257,359.052,407.257,663.644,407.257,663.644C407.257,663.644,674.98,511.139,674.98,511.139C674.98,511.139,407.257,359.052,407.257,359.052C407.257,359.052,407.257,359.052,407.257,359.052" class="icon-youtube"/><glyph unicode="&#x0045;" d="M229.857,0.5C229.857,0.5,17.757,0.5,17.757,0.5C17.757,0.5,17.757,683.66,17.757,683.66C17.757,683.66,229.857,683.66,229.857,683.66C229.857,683.66,229.857,0.5,229.857,0.5C229.857,0.5,229.857,0.5,229.857,0.5M123.807,776.885C55.738,776.885,0,831.637,0,899.706C0,967.776,54.751,1023.513,122.821,1023.513C190.89,1023.513,246.135,968.762,246.628,901.186C246.628,833.117,191.877,777.872,123.807,777.379C123.807,777.379,123.807,776.885,123.807,776.885M1024,0.5C1024,0.5,812.393,0.5,812.393,0.5C812.393,0.5,812.393,332.955,812.393,332.955C812.393,412.369,810.913,513.98,701.904,513.98C592.894,513.98,574.644,427.66,574.644,338.874C574.644,338.874,574.644,0.5,574.644,0.5C574.644,0.5,362.543,0.5,362.543,0.5C362.543,0.5,362.543,683.66,362.543,683.66C362.543,683.66,566.258,683.66,566.258,683.66C566.258,683.66,566.258,590.434,566.258,590.434C566.258,590.434,569.218,590.434,569.218,590.434C610.651,661.463,687.599,703.883,769.973,700.924C984.539,700.924,1024,559.359,1024,375.868C1024,375.868,1024,0.5,1024,0.5C1024,0.5,1024,0.5,1024,0.5C1024,0.5,1024,0.5,1024,0.5" class="icon-linkedin"/><glyph unicode="&#x0046;" d="M1024,828.138C985.254,811.532,946.508,800.462,902.227,794.927C946.508,822.603,979.719,861.349,996.324,911.165C957.578,889.024,907.762,866.884,863.481,861.349C785.989,944.376,653.146,949.911,570.119,872.419C520.303,833.673,498.162,778.322,498.162,717.435C498.162,700.83,498.162,684.224,503.697,667.619C337.643,678.689,177.124,756.181,71.957,889.024C16.605,794.927,44.281,673.154,138.378,606.732C105.168,606.732,71.957,617.803,44.281,634.408C44.281,634.408,44.281,634.408,44.281,634.408C44.281,534.776,116.238,446.214,210.335,429.608C193.73,424.073,171.589,424.073,154.984,424.073C143.914,424.073,127.308,424.073,116.238,429.608C143.914,346.581,221.405,285.695,309.968,285.695C238.011,224.808,143.914,197.132,49.816,197.132C33.211,197.132,16.605,197.132,0,202.668C94.097,130.711,204.8,97.5,321.038,97.5C647.611,97.5,913.297,357.651,918.832,684.224C918.832,684.224,918.832,689.759,918.832,689.759C918.832,700.83,918.832,706.365,918.832,717.435C957.578,750.646,990.789,789.392,1024,828.138C1024,828.138,1024,828.138,1024,828.138" class="icon-twitter"/><glyph unicode="&#x0047;" d="M511.921,1024.5C493.806,1024.5,474.902,1023.712,456.787,1021.349C440.247,1019.774,423.706,1016.624,407.166,1013.473C404.016,1013.473,400.865,1011.898,397.715,1011.11C301.624,989.057,214.197,940.224,144.885,869.337C138.584,863.036,132.283,855.947,125.982,848.858C-59.111,636.198,-37.057,312.482,176.391,126.602C380.387,-51.403,688.35,-39.588,878.169,153.381C884.47,159.682,890.771,166.771,897.072,173.86C978.986,267.587,1024.668,387.307,1023.881,511.753C1024.668,795.3,795.468,1024.5,511.921,1024.5C511.921,1024.5,511.921,1024.5,511.921,1024.5M168.514,844.133C168.514,844.133,174.028,849.646,176.391,852.009C179.541,855.16,182.692,858.31,185.842,861.461C188.993,863.823,191.356,866.974,194.506,869.337C197.657,872.487,200.807,874.85,204.745,878.001C207.896,880.364,211.046,882.727,214.197,885.089C217.347,887.452,221.286,890.603,224.436,892.966C227.587,895.329,230.737,897.692,233.888,900.054C237.038,902.417,240.976,905.568,244.914,907.931C248.065,910.294,251.215,911.869,254.366,914.232C258.304,916.595,261.455,918.958,265.393,921.32C268.543,923.683,272.482,925.259,275.632,926.834C279.57,929.197,283.508,930.772,286.659,933.135C289.809,934.71,293.748,937.073,296.898,938.648C300.836,940.224,304.774,942.586,308.712,944.162C311.863,945.737,315.801,947.312,318.952,948.888C322.89,950.463,326.828,952.038,330.766,954.401C333.917,955.976,337.855,957.551,341.005,958.339C344.943,959.914,349.669,961.49,353.607,963.065C357.546,964.64,360.696,965.428,364.634,967.003C368.572,968.578,373.298,969.366,377.236,970.941C381.174,971.729,384.325,973.304,388.263,974.092C388.263,974.092,392.201,974.092,392.201,974.092C341.793,926.046,303.987,865.399,282.721,797.663C242.552,808.689,203.17,823.654,165.364,842.557C165.364,842.557,166.939,844.133,166.939,844.133C166.939,844.133,168.514,844.133,168.514,844.133M144.098,816.566C185.055,794.512,228.374,777.184,274.057,764.582C252.003,687.394,240.189,607.844,239.401,528.293C239.401,528.293,33.83,528.293,33.83,528.293C37.768,633.835,76.362,734.652,143.31,816.566C143.31,816.566,144.098,816.566,144.098,816.566M144.098,206.152C76.362,287.278,37.768,388.883,34.617,494.425C34.617,494.425,238.613,494.425,238.613,494.425C238.613,414.087,251.215,334.536,273.269,258.136C228.374,246.321,184.267,228.994,143.31,206.152C143.31,206.152,144.098,206.152,144.098,206.152M389.051,49.414C389.051,49.414,381.962,51.777,378.812,52.564C374.873,54.14,370.148,54.927,366.209,56.503C362.271,57.29,359.121,58.866,355.183,60.441C351.245,62.016,346.519,63.591,342.581,65.167C338.642,66.742,335.492,68.317,332.341,69.105C332.341,69.105,319.739,74.618,319.739,74.618C319.739,74.618,312.651,77.769,309.5,79.344C305.562,80.919,301.624,83.282,297.686,84.857C294.535,86.433,290.597,88.008,287.446,90.371C283.508,92.734,279.57,94.309,275.632,96.672C272.482,98.247,269.331,100.61,265.393,102.185C261.455,104.548,258.304,106.911,254.366,109.274C251.215,111.637,248.065,113.212,244.914,115.575C240.976,117.938,237.826,120.301,233.888,123.451C230.737,125.814,227.587,128.177,224.436,130.54C221.286,132.903,217.347,136.053,214.197,138.416C211.046,140.779,207.896,143.142,205.533,145.505C202.382,148.655,198.444,151.018,195.294,154.169C192.143,156.532,189.78,159.682,186.63,162.045C183.479,165.196,180.329,168.346,177.178,171.497C174.815,173.86,171.665,177.01,169.302,179.373C169.302,179.373,167.727,180.948,167.727,180.948C204.745,199.851,244.127,215.604,285.084,225.843C306.35,158.895,343.368,97.459,394.564,48.626C392.989,48.626,391.414,48.626,390.626,49.414C390.626,49.414,389.051,49.414,389.051,49.414M495.381,34.449C422.131,44.688,358.333,121.088,318.164,233.719C376.449,247.109,436.309,253.41,495.381,254.985C495.381,254.985,495.381,34.449,495.381,34.449C495.381,34.449,495.381,34.449,495.381,34.449M495.381,288.854C432.37,288.066,368.572,280.19,307.137,266.012C285.871,340.049,274.057,416.45,273.269,493.637C273.269,493.637,495.381,493.637,495.381,493.637C495.381,493.637,495.381,288.066,495.381,288.066C495.381,288.066,495.381,288.854,495.381,288.854M495.381,528.293C495.381,528.293,273.269,528.293,273.269,528.293C274.057,605.481,285.084,681.881,307.137,755.918C368.572,741.741,432.37,734.652,495.381,733.077C495.381,733.077,495.381,527.505,495.381,527.505C495.381,527.505,495.381,528.293,495.381,528.293M495.381,767.733C435.521,768.52,376.449,775.609,318.164,788.999C358.333,901.63,422.919,978.03,495.381,988.269C495.381,988.269,495.381,768.52,495.381,768.52C495.381,768.52,495.381,767.733,495.381,767.733M880.532,815.778C948.268,734.652,986.862,633.048,990.013,527.505C990.013,527.505,785.229,527.505,785.229,527.505C785.229,607.844,772.627,687.394,750.573,763.794C795.468,775.609,839.575,792.937,880.532,815.778C880.532,815.778,880.532,815.778,880.532,815.778M635.579,972.516C635.579,972.516,642.668,970.154,646.606,969.366C650.544,967.791,655.27,967.003,659.208,965.428C663.146,964.64,666.297,963.065,670.235,961.49C674.173,959.914,678.899,958.339,682.837,956.764C686.775,955.189,689.925,953.613,693.076,952.826C693.076,952.826,705.678,947.312,705.678,947.312C705.678,947.312,712.767,944.162,715.917,942.586C719.855,941.011,723.794,938.648,727.732,937.073C730.882,935.498,734.82,933.923,737.971,931.56C741.909,929.197,745.847,927.622,749.785,925.259C752.936,923.683,756.086,921.32,760.025,919.745C763.963,917.382,767.113,915.019,771.051,912.657C774.202,910.294,777.352,908.718,780.503,906.355C784.441,903.993,787.592,901.63,791.53,898.479C794.68,896.116,797.831,893.753,800.981,891.391C804.132,889.028,808.07,885.877,811.22,883.514C814.371,881.151,817.522,878.788,819.884,876.426C823.035,873.275,826.973,870.912,830.124,867.762C833.274,865.399,835.637,862.248,838.788,859.885C841.938,856.735,845.089,853.584,848.239,850.434C850.602,848.071,853.753,844.92,856.115,842.557C856.115,842.557,857.691,840.982,857.691,840.982C820.672,822.079,781.291,806.326,740.334,796.087C719.068,863.036,681.262,924.471,630.853,973.304C632.428,973.304,634.004,973.304,634.791,972.516C634.791,972.516,635.579,972.516,635.579,972.516M529.249,987.481C602.499,977.242,666.297,900.842,706.466,788.211C648.181,774.821,588.321,768.52,529.249,766.945C529.249,766.945,529.249,989.057,529.249,989.057C529.249,989.057,529.249,987.481,529.249,987.481M529.249,733.077C592.259,733.865,656.057,741.741,717.493,755.918C738.759,681.881,750.573,605.481,751.361,528.293C751.361,528.293,529.249,528.293,529.249,528.293C529.249,528.293,529.249,734.652,529.249,734.652C529.249,734.652,529.249,733.077,529.249,733.077M529.249,493.637C529.249,493.637,751.361,493.637,751.361,493.637C750.573,416.45,739.546,340.049,717.493,266.012C656.057,280.19,592.259,287.278,529.249,288.854C529.249,288.854,529.249,494.425,529.249,494.425C529.249,494.425,529.249,493.637,529.249,493.637M529.249,33.661C529.249,33.661,529.249,254.198,529.249,254.198C589.109,253.41,648.181,246.321,706.466,232.932C666.297,120.301,601.711,43.901,529.249,33.661C529.249,33.661,529.249,33.661,529.249,33.661M856.115,177.798C856.115,177.798,850.602,172.284,848.239,169.921C845.089,166.771,841.938,163.62,838.788,160.47C835.637,158.107,833.274,154.956,830.124,152.594C826.973,149.443,823.823,147.08,819.884,143.93C816.734,141.567,813.583,139.204,810.433,136.841C807.282,134.478,803.344,131.327,800.194,128.965C797.043,126.602,793.893,124.239,790.742,121.876C787.592,119.513,783.653,116.363,779.715,114C776.565,111.637,773.414,110.061,770.264,107.699C766.326,105.336,763.175,102.973,759.237,100.61C756.086,98.247,752.936,96.672,748.998,95.097C745.06,92.734,741.121,91.158,737.971,88.795C734.82,87.22,730.882,84.857,727.732,83.282C723.794,81.707,719.855,79.344,715.917,77.769C712.767,76.193,708.829,74.618,705.678,73.043C701.74,71.468,697.802,69.892,693.864,67.529C690.713,65.954,686.775,64.379,683.624,63.591C679.686,62.016,674.96,60.441,671.022,58.866C667.084,57.29,663.934,56.503,659.996,54.927C656.057,53.352,651.332,52.564,647.393,50.989C643.455,50.202,640.305,48.626,636.367,47.839C636.367,47.839,632.428,47.839,632.428,47.839C682.837,95.884,720.643,156.532,741.909,224.268C782.078,213.241,821.46,198.276,859.266,179.373C859.266,179.373,857.691,177.798,857.691,177.798C857.691,177.798,856.115,177.798,856.115,177.798M880.532,205.365C839.575,227.418,796.256,244.746,750.573,257.348C772.627,334.536,784.441,414.087,785.229,493.637C785.229,493.637,990.013,493.637,990.013,493.637C986.074,388.095,947.48,287.278,880.532,205.365C880.532,205.365,880.532,205.365,880.532,205.365" class="icon-earth"/><glyph unicode="&#x0048;" d="M766.386,23.621C561.488,165.495,347.882,294.352,126.783,409.443C43.157,451.771,36.695,568.735,115.171,619.96C118.917,622.395,122.756,624.642,126.783,626.702C349.005,737.673,563.923,862.784,770.132,1001.287C847.952,1056.07,955.833,1006.157,964.448,911.387C964.823,906.985,965.01,902.678,964.916,898.276C964.916,898.276,964.916,122.886,964.916,122.886C964.916,28.491,862.748,-30.6,780.901,16.598C777.156,18.751,773.597,21.093,770.132,23.621" class="icon-arrow-left"/><glyph unicode="&#x0049;" d="M258.554,23.621C463.452,165.495,677.059,294.352,898.157,409.443C981.783,451.771,988.245,568.735,909.769,619.96C906.023,622.395,902.184,624.642,898.157,626.702C675.935,737.673,461.017,862.784,254.808,1001.287C176.988,1056.07,69.108,1006.157,60.492,911.387C60.118,906.985,59.93,902.678,60.024,898.276C60.024,898.276,60.024,122.886,60.024,122.886C60.024,28.491,162.192,-30.6,244.039,16.598C247.784,18.751,251.343,21.093,254.808,23.621" class="icon-arrow-right"/><glyph unicode="&#x004a;" d="M225,512C225,512,701.51,0,701.51,0C701.51,0,799.108,104.905,799.108,104.905C799.108,104.905,418.631,512,418.631,512C418.631,512,799.108,919.617,799.108,919.617C799.108,919.617,701.51,1024,701.51,1024C701.51,1024,225,512,225,512" class="icon-chevron-left"/><glyph unicode="&#x004b;" d="M799.108,512C799.108,512,322.598,0,322.598,0C322.598,0,225,104.905,225,104.905C225,104.905,605.477,512,605.477,512C605.477,512,225,919.617,225,919.617C225,919.617,322.598,1024,322.598,1024C322.598,1024,799.108,512,799.108,512" class="icon-chevron-right"/><glyph unicode="&#x004c;" d="M684.105,906.502C466.472,1124.647,94.298,1025.385,14.191,727.83C-65.917,430.276,206.113,157.596,503.852,237.006C548.718,248.955,591.119,268.621,629.243,295.122C632.916,279.128,640.959,264.483,652.489,252.814C652.489,252.814,879.374,25.464,879.374,25.464C925.355,-20.703,1004.068,0.218,1021.084,63.123C1028.941,92.321,1020.666,123.517,999.325,144.95C999.325,144.95,771.976,372.765,771.976,372.765C760.399,384.295,745.707,392.245,729.667,395.546C839.762,554.551,820.607,769.487,684.105,906.502C684.105,906.502,684.105,906.502,684.105,906.502M612.506,412.284C449.828,249.513,171.94,323.854,112.29,546.09C52.64,768.372,255.999,971.87,478.281,912.406C529.051,898.784,575.358,872.097,612.506,834.903C728.645,717.973,728.645,529.213,612.506,412.284C612.506,412.284,612.506,412.284,612.506,412.284" class="icon-search"/><glyph unicode="&#x004d;" d="M512.483,0.007C504.365,-0.155,496.355,2.335,489.752,7.043C472.974,17.868,86,279.819,86,597.517C86.325,832.949,277.051,1023.675,512.483,1024C747.698,1023.405,938.154,832.732,938.425,597.517C938.425,279.819,551.451,17.868,534.673,7.043C528.233,2.389,520.439,-0.047,512.483,0.007C512.483,0.007,512.483,0.007,512.483,0.007M512.483,942.817C321.756,942.817,167.183,788.244,167.183,597.517C167.183,363.168,432.382,149.385,511.942,90.392C592.043,149.926,857.242,363.709,857.242,597.517C857.242,788.027,702.993,942.492,512.483,942.817C512.483,942.817,512.483,942.817,512.483,942.817M512.483,428.656C382.103,428.223,300.108,569.157,364.946,682.272C429.784,795.442,592.801,795.929,658.397,683.246C673.497,657.214,681.453,627.609,681.344,597.517C681.074,504.373,605.627,428.926,512.483,428.656C512.483,428.656,512.483,428.656,512.483,428.656M512.483,685.736C444.56,686.169,401.695,612.888,435.251,553.894C468.861,494.847,553.778,494.36,588.092,552.92C595.994,566.451,600.161,581.821,600.161,597.517C600.161,646.01,560.977,685.465,512.483,685.736C512.483,685.736,512.483,685.736,512.483,685.736" class="icon-location"/><glyph unicode="&#x004e;" d="M501.688,1023.943C501.688,1023.943,420.303,939.771,420.303,939.771C420.303,939.771,797.126,574.654,797.126,574.654C797.126,574.654,0,564.62,0,564.62C0,564.62,0,447.002,0,447.002C0,447.002,796.568,457.593,796.568,457.593C796.568,457.593,431.451,83,431.451,83C431.451,83,516.181,0.5,516.181,0.5C516.181,0.5,1024,518.91,1024,518.91C1024,518.91,501.688,1023.943,501.688,1023.943" class="icon-arrow-right-2"/><glyph unicode="&#x004f;" d="M870.833,0C870.833,0,154.088,0,154.088,0C69.256,0,0.5,68.756,0.5,153.588C0.5,153.588,0.5,358.372,0.5,358.372C0.5,397.793,43.146,422.419,77.294,402.708C93.114,393.544,102.892,376.649,102.892,358.372C102.892,358.372,102.892,153.588,102.892,153.588C103.097,140.021,108.37,127.069,117.739,117.239C127.569,107.87,140.521,102.597,154.088,102.392C154.088,102.392,870.833,102.392,870.833,102.392C899.093,102.392,922.029,125.328,922.029,153.588C922.029,153.588,922.029,358.372,922.029,358.372C922.029,397.793,964.675,422.419,998.823,402.708C1014.643,393.544,1024.421,376.649,1024.421,358.372C1024.421,358.372,1024.421,153.588,1024.421,153.588C1024.421,68.756,955.665,0,870.833,0C870.833,0,870.833,0,870.833,0M512.461,307.176C498.842,307.074,485.787,312.45,476.111,322.023C476.111,322.023,220.131,578.004,220.131,578.004C192.127,606.008,204.977,653.774,243.169,664.013C260.934,668.774,279.826,663.706,292.83,650.702C292.83,650.702,512.461,430.559,512.461,430.559C512.461,430.559,732.092,650.702,732.092,650.702C760.096,678.706,807.862,665.856,818.101,627.664C822.862,609.899,817.794,591.007,804.79,578.004C804.79,578.004,548.81,322.023,548.81,322.023C539.134,312.45,526.079,307.074,512.461,307.176C512.461,307.176,512.461,307.176,512.461,307.176M512.461,307.176C484.2,307.176,461.265,330.112,461.265,358.372C461.265,358.372,461.265,972.725,461.265,972.725C461.265,1012.146,503.911,1036.771,538.059,1017.061C553.878,1007.897,563.657,991.002,563.657,972.725C563.657,972.725,563.657,358.372,563.657,358.372C563.657,330.112,540.721,307.176,512.461,307.176C512.461,307.176,512.461,307.176,512.461,307.176" class="icon-download"/><glyph unicode="&#x0050;" d="M519.051,660.925C457.26,657.108,410.329,603.769,414.419,541.978C410.738,480.459,457.533,427.564,519.051,423.712C580.434,427.734,627.024,480.562,623.343,541.978C627.433,603.633,580.706,656.903,519.051,660.925C519.051,660.925,519.051,660.925,519.051,660.925M519.051,480.971C487.287,483.152,462.986,510.179,464.179,541.978C462.441,574.118,486.912,601.656,519.051,603.667C551.055,601.486,575.321,573.981,573.583,541.978C574.776,510.281,550.68,483.322,519.051,480.971C519.051,480.971,519.051,480.971,519.051,480.971M935.537,930.857C935.537,930.857,256.618,1019.13,256.618,1019.13C229.693,1023.152,202.461,1014.325,183,995.273C162.039,975.982,149.224,949.398,147.213,920.973C147.213,920.973,134.603,805.775,134.603,805.775C134.603,805.775,96.09,805.775,96.09,805.775C41.558,805.775,0.319,750.902,0.319,689.213C0.319,689.213,0.319,114.245,0.319,114.245C-4.044,58.691,36.889,9.885,92.341,4.5C92.341,4.5,778.758,4.5,778.758,4.5C837.687,6.545,884.175,55.283,883.391,114.245C883.391,114.245,883.391,136.739,883.391,136.739C900.569,140.557,916.655,148.259,930.425,159.234C951.113,179.479,963.894,206.404,966.552,235.237C966.552,235.237,1022.788,805.775,1022.788,805.775C1031.411,863.988,993.17,918.86,935.537,930.857C935.537,930.857,935.537,930.857,935.537,930.857M833.29,112.882C832.37,83.196,808.137,59.543,778.418,59.373C778.418,59.373,96.772,59.373,96.772,59.373C70.562,60.293,50.011,82.208,50.76,108.451C50.76,108.451,50.76,218.196,50.76,218.196C50.76,218.196,243.666,378.383,243.666,378.383C266.058,398.526,300.55,396.685,320.692,374.293C320.692,374.293,457.022,237.964,457.022,237.964C476.755,218.878,502.862,207.835,530.298,206.949C551.6,206.71,572.458,213.152,589.942,225.353C589.942,225.353,834.994,385.54,834.994,385.54C834.994,385.54,834.994,112.882,834.994,112.882C834.994,112.882,833.29,112.882,833.29,112.882M833.29,451.66C833.29,451.66,560.632,273.069,560.632,273.069C537.66,257.493,506.884,260.492,487.355,280.226C487.355,280.226,351.026,416.555,351.026,416.555C313.603,452.853,254.879,455.204,214.696,422.008C214.696,422.008,50.42,285.679,50.42,285.679C50.42,285.679,50.42,689.213,50.42,689.213C50.42,720.228,69.165,749.539,96.431,749.539C96.431,749.539,778.077,749.539,778.077,749.539C809.092,746.404,832.745,720.399,832.949,689.213C832.949,689.213,833.29,451.66,833.29,451.66M974.05,814.636C974.05,814.636,974.05,814.636,974.05,814.636C974.05,814.636,915.769,242.054,915.769,242.054C915.872,227.705,909.941,213.97,899.41,204.222C894.638,198.428,883.391,195.702,883.391,192.975C883.391,192.975,883.391,689.213,883.391,689.213C884.686,749.573,838.914,800.594,778.758,805.775C778.758,805.775,184.363,805.775,184.363,805.775C184.363,805.775,195.61,916.883,195.61,916.883C198.303,929.869,204.847,941.729,214.356,950.966C224.785,959.418,238.145,963.44,251.505,962.213C251.505,962.213,929.402,873.599,929.402,873.599C957.384,868.589,976.811,842.925,974.05,814.636C974.05,814.636,974.05,814.636,974.05,814.636" class="icon-photo"/><glyph unicode="&#x0051;" d="M1010.834,762.051C1002.679,767.683,992.219,768.781,983.04,764.977C983.04,764.977,702.537,653.069,702.537,653.069C702.537,653.069,702.537,737.183,702.537,737.183C702.537,789.151,660.517,831.318,608.549,831.537C608.549,831.537,94.354,831.537,94.354,831.537C42.313,831.354,0.183,789.224,0,737.183C0,737.183,0,287.354,0,287.354C0.183,235.313,42.313,193.183,94.354,193C94.354,193,608.549,193,608.549,193C660.517,193.219,702.537,235.386,702.537,287.354C702.537,287.354,702.537,371.469,702.537,371.469C702.537,371.469,983.04,259.56,983.04,259.56C986.514,258.097,990.245,257.366,994.011,257.366C1000.009,257.439,1005.824,259.231,1010.834,262.486C1019.026,268.118,1023.963,277.407,1024,287.354C1024,287.354,1024,737.183,1024,737.183C1023.963,747.13,1019.026,756.419,1010.834,762.051C1010.834,762.051,1010.834,762.051,1010.834,762.051M642.56,286.623C642.56,267.789,627.383,252.429,608.549,252.246C608.549,252.246,94.354,252.246,94.354,252.246C75.374,252.246,59.977,267.642,59.977,286.623C59.977,286.623,59.977,737.183,59.977,737.183C59.977,756.163,75.374,771.56,94.354,771.56C94.354,771.56,608.549,771.56,608.549,771.56C627.383,771.377,642.56,756.017,642.56,737.183C642.56,737.183,642.56,286.623,642.56,286.623M964.023,330.874C964.023,330.874,702.537,435.469,702.537,435.469C702.537,435.469,702.537,588.337,702.537,588.337C702.537,588.337,964.023,692.931,964.023,692.931C964.023,692.931,964.023,330.874,964.023,330.874" class="icon-video"/><glyph unicode="&#x0052;" d="M605.575,114.005C599.336,113.912,593.143,115.169,587.416,117.73C587.416,117.73,401.17,195.953,401.17,195.953C383.943,203.216,372.768,220.118,372.768,238.789C372.768,238.789,372.768,474.856,372.768,474.856C372.768,474.856,14.245,831.051,14.245,831.051C0.882,844.321,-3.169,864.388,4.001,881.802C11.125,899.17,28.027,910.577,46.838,910.671C46.838,910.671,978.066,910.671,978.066,910.671C1013.918,910.531,1036.128,871.605,1018.109,840.642C1016.06,837.15,1013.546,833.937,1010.659,831.051C1010.659,831.051,652.136,474.856,652.136,474.856C652.136,474.856,652.136,160.566,652.136,160.566C652.229,144.828,644.314,130.115,631.184,121.455C623.548,116.519,614.654,113.958,605.575,114.005C605.575,114.005,605.575,114.005,605.575,114.005M465.891,269.52C465.891,269.52,559.013,230.408,559.013,230.408C559.013,230.408,559.013,494.412,559.013,494.412C559.06,506.843,564.089,518.763,572.982,527.47C572.982,527.47,864.922,817.548,864.922,817.548C864.922,817.548,159.982,817.548,159.982,817.548C159.982,817.548,451.922,527.47,451.922,527.47C460.815,518.763,465.844,506.843,465.891,494.412C465.891,494.412,465.891,269.52,465.891,269.52" class="icon-filter"/><glyph unicode="&#x0053;" d="M341.542,341.729C326.414,341.615,311.912,347.587,301.163,358.222C301.163,358.222,16.806,642.579,16.806,642.579C-5.602,664.816,-5.602,701.1,16.806,723.337C16.806,723.337,301.163,1007.694,301.163,1007.694C332.272,1038.803,385.333,1024.528,396.707,982.102C401.996,962.368,396.366,941.382,381.921,926.937C381.921,926.937,137.373,682.958,137.373,682.958C137.373,682.958,381.921,438.979,381.921,438.979C404.328,416.743,404.328,380.459,381.921,358.222C371.172,347.587,356.67,341.615,341.542,341.729C341.542,341.729,341.542,341.729,341.542,341.729M967.128,0.5C935.735,0.5,910.257,25.978,910.257,57.372C910.257,57.372,910.257,455.472,910.257,455.472C910.2,500.685,892.229,544.078,860.21,576.04C828.248,608.058,784.855,626.03,739.642,626.087C739.642,626.087,57.184,626.087,57.184,626.087C13.393,626.087,-13.962,673.461,7.934,711.394C18.114,728.967,36.881,739.83,57.184,739.83C57.184,739.83,739.642,739.83,739.642,739.83C896.665,739.83,1024,612.494,1024,455.472C1024,455.472,1024,57.372,1024,57.372C1024,25.978,998.522,0.5,967.128,0.5C967.128,0.5,967.128,0.5,967.128,0.5" class="icon-back"/><glyph unicode="&#x0054;" d="M872.329,874.042C672.385,1073.986,352.474,1073.986,158.243,874.042C-1.713,714.086,-35.989,462.728,78.265,262.784C78.265,262.784,4,0,4,0C4,0,272.497,68.552,272.497,68.552C346.762,28.563,432.452,5.713,512.43,5.713C512.43,5.713,512.43,5.713,512.43,5.713C792.351,5.713,1020.859,228.508,1020.859,508.43C1020.859,651.247,969.445,776.926,872.329,874.042C872.329,874.042,872.329,874.042,872.329,874.042C872.329,874.042,872.329,874.042,872.329,874.042M512.43,97.116C438.165,97.116,363.9,119.967,295.347,154.243C295.347,154.243,283.922,165.668,283.922,165.668C283.922,165.668,123.967,125.679,123.967,125.679C123.967,125.679,169.668,279.922,169.668,279.922C169.668,279.922,158.243,297.06,158.243,297.06C38.276,497.004,101.116,754.075,301.06,874.042C501.004,994.008,758.075,931.169,878.042,731.225C918.031,668.385,940.881,594.12,940.881,519.855C935.169,285.635,746.65,97.116,512.43,97.116C512.43,97.116,512.43,97.116,512.43,97.116M746.65,411.314C735.225,417.026,672.385,445.59,660.96,451.303C649.534,457.015,638.109,457.015,632.396,445.59C626.683,434.165,598.12,405.601,592.407,394.176C586.695,382.75,575.269,388.463,563.844,394.176C489.579,422.739,432.452,474.153,392.463,542.706C375.325,565.556,403.888,565.556,426.739,611.258C432.452,616.971,432.452,628.396,426.739,634.109C421.026,639.821,398.176,702.661,386.75,731.225C375.325,759.788,363.9,748.363,358.187,748.363C352.474,748.363,341.049,748.363,335.336,748.363C323.911,748.363,306.773,742.65,301.06,736.937C272.497,708.374,255.358,668.385,255.358,628.396C261.071,582.695,278.209,536.993,306.773,497.004C358.187,417.026,432.452,348.474,523.855,308.485C569.556,279.922,620.971,268.497,678.098,274.209C712.374,279.922,746.65,302.773,763.788,337.049C769.501,354.187,775.213,377.038,769.501,399.888C763.788,399.888,758.075,405.601,746.65,411.314C746.65,411.314,746.65,411.314,746.65,411.314C746.65,411.314,746.65,411.314,746.65,411.314" class="icon-whatsapp"/><glyph unicode="&#x0055;" d="M451.428,739.306C451.428,739.306,411.601,739.306,411.601,739.306C406.622,739.306,404.963,742.418,406.622,748.641C406.622,748.641,472.171,1014.571,472.171,1014.571C472.96,1017.33,474.536,1019.778,476.735,1021.624C478.955,1023.387,481.796,1024.217,484.617,1023.906C484.617,1023.906,539.795,1023.906,539.795,1023.906C542.595,1024.279,545.416,1023.532,547.677,1021.832C549.98,1020.006,551.598,1017.434,552.241,1014.571C552.241,1014.571,617.79,748.641,617.79,748.641C619.45,742.418,617.79,739.306,612.812,739.306C612.812,739.306,572.984,739.306,572.984,739.306C571.885,739.099,570.765,739.099,569.665,739.306C568.566,739.576,567.55,740.157,566.761,740.966C565.289,743.123,564.438,745.633,564.272,748.226C564.272,748.226,552.656,796.973,552.656,796.973C552.656,796.973,471.757,796.973,471.757,796.973C471.757,796.973,460.14,748.226,460.14,748.226C459.912,745.612,458.979,743.103,457.444,740.966C455.722,739.659,453.565,739.058,451.428,739.306C451.428,739.306,451.428,739.306,451.428,739.306M511.584,970.18C511.584,970.18,481.713,842.401,481.713,842.401C481.713,842.401,543.944,842.401,543.944,842.401C543.944,842.401,513.243,970.18,513.243,970.18C513.243,970.18,511.584,970.18,511.584,970.18M463.044,341.241C463.044,341.241,431.307,341.241,431.307,341.241C427.158,341.241,425.914,343.73,427.158,348.708C427.158,348.708,479.639,561.328,479.639,561.328C480.033,563.797,481.381,566.037,483.373,567.551C485.136,568.941,487.356,569.605,489.596,569.418C489.596,569.418,533.779,569.418,533.779,569.418C536.061,569.812,538.405,569.211,540.21,567.759C542.077,566.327,543.342,564.253,543.736,561.95C543.736,561.95,596.217,348.708,596.217,348.708C597.462,343.73,596.217,341.241,592.276,341.241C592.276,341.241,557.634,341.241,557.634,341.241C556.804,341.593,556.037,342.091,555.352,342.693C554.149,344.414,553.423,346.406,553.278,348.501C553.278,348.501,544.151,387.498,544.151,387.498C544.151,387.498,479.432,387.498,479.432,387.498C479.432,387.498,470.097,348.501,470.097,348.501C469.952,346.406,469.226,344.414,468.023,342.693C467.38,342.091,466.591,341.656,465.741,341.448C464.87,341.178,463.957,341.116,463.044,341.241C463.044,341.241,463.044,341.241,463.044,341.241M511.169,526.064C511.169,526.064,487.314,423.799,487.314,423.799C487.314,423.799,536.476,423.799,536.476,423.799C536.476,423.799,512.621,526.064,512.621,526.064C512.621,526.064,511.169,526.064,511.169,526.064M474.661,0.012C474.661,0.012,450.806,0.012,450.806,0.012C447.902,0.012,446.864,1.879,447.902,5.613C447.902,5.613,487.314,165.129,487.314,165.129C487.708,166.789,488.662,168.262,490.011,169.278C491.359,170.336,493.06,170.854,494.782,170.73C494.782,170.73,527.971,170.73,527.971,170.73C529.672,170.937,531.373,170.502,532.742,169.485C534.111,168.365,535.045,166.851,535.439,165.129C535.439,165.129,574.644,5.613,574.644,5.613C575.619,1.879,574.582,0.012,571.532,0.012C571.532,0.012,545.603,0.012,545.603,0.012C545.603,0.012,543.944,1.049,543.944,1.049C543.052,2.335,542.554,3.849,542.492,5.405C542.492,5.405,535.439,34.653,535.439,34.653C535.439,34.653,486.899,34.653,486.899,34.653C486.899,34.653,480.054,5.405,480.054,5.405C479.846,3.849,479.286,2.356,478.394,1.049C477.295,0.282,475.988,-0.071,474.661,0.012C474.661,0.012,474.661,0.012,474.661,0.012M510.754,138.578C510.754,138.578,492.915,62.035,492.915,62.035C492.915,62.035,530.46,62.035,530.46,62.035C530.46,62.035,511.791,138.578,511.791,138.578C511.791,138.578,510.754,138.578,510.754,138.578" class="icon-size"/><glyph unicode="&#x0056;" d="M571.162,302.985C571.162,302.985,568.197,302.985,568.197,302.985C559.3,301.799,550.997,298.24,544.473,291.716C544.473,291.716,385.52,132.763,385.52,132.763C313.161,65.149,199.877,69.3,132.263,142.253C68.207,211.053,68.207,317.219,132.263,386.02C132.263,386.02,301.299,555.055,301.299,555.055C309.602,563.359,319.092,571.069,329.175,578.187C340.444,585.897,352.899,591.828,365.354,596.573C377.216,600.725,389.672,604.283,402.127,605.47C410.43,606.656,418.734,607.249,427.037,607.249C427.037,607.249,438.306,607.249,438.306,607.249C481.603,604.876,522.528,586.49,553.369,555.649C572.349,536.669,586.583,513.538,595.48,488.627C602.004,469.055,622.763,457.786,642.928,463.717C642.928,463.717,644.115,463.717,644.115,463.717C664.28,469.648,675.549,490.407,670.211,510.572C659.535,549.124,638.777,583.525,609.714,611.401C571.162,649.953,521.935,674.863,467.962,683.76C467.962,683.76,453.727,685.539,453.727,685.539C444.831,686.725,435.341,686.725,426.444,686.725C419.92,686.725,413.396,686.725,407.465,686.132C393.823,684.946,380.775,683.167,367.727,680.201C364.761,680.201,362.389,679.015,360.016,678.422C343.409,674.27,327.395,668.339,311.975,660.629C286.471,648.173,263.933,631.566,243.767,611.994C243.767,611.994,74.732,443.551,74.732,443.551C26.69,393.73,0,327.895,0,259.095C0,116.156,116.249,0.5,259.188,0.5C327.395,0.5,393.23,27.783,441.272,75.825C441.272,75.825,602.004,236.557,602.004,236.557C616.832,251.978,616.832,276.888,601.411,291.716C593.107,299.426,582.432,303.578,571.162,302.392C571.162,302.392,571.162,302.392,571.162,302.392C571.162,302.392,571.162,302.985,571.162,302.985M948.379,948.286C846.957,1049.114,683.853,1049.114,582.432,948.286C582.432,948.286,425.258,791.705,425.258,791.705C409.837,776.285,409.837,751.374,425.258,735.953C431.782,729.429,440.679,725.277,449.575,724.684C461.438,723.498,472.707,727.65,481.01,735.953C481.01,735.953,638.184,892.534,638.184,892.534C709.357,961.334,823.233,958.962,891.44,887.789C957.869,818.395,957.869,708.67,891.44,639.277C891.44,639.277,722.405,470.834,722.405,470.834C714.101,462.531,704.612,454.82,694.529,447.703C683.26,439.993,670.805,434.062,658.349,429.317C646.487,425.165,634.032,421.606,621.577,420.42C613.273,419.234,604.97,418.641,596.666,418.641C596.666,418.641,585.397,418.641,585.397,418.641C515.41,422.792,454.32,467.276,430.003,533.11C422.886,552.09,402.72,562.766,383.147,557.428C361.796,552.09,349.34,530.145,354.678,508.793C354.678,508.793,354.678,507.014,354.678,507.014C366.54,472.02,386.706,439.993,413.396,414.489C413.396,414.489,413.396,414.489,413.396,414.489C455.507,372.378,510.072,346.282,569.383,339.757C578.28,338.571,587.769,338.571,596.666,338.571C603.19,338.571,609.714,338.571,615.646,339.164C631.659,340.351,647.673,343.316,663.094,346.875C679.701,351.026,695.715,356.958,711.136,364.668C736.639,377.123,759.178,393.73,779.343,413.303C779.343,413.303,948.379,582.338,948.379,582.338C1049.207,683.167,1049.207,847.457,948.379,948.286C948.379,948.286,948.379,948.286,948.379,948.286" class="icon-copy"/><glyph unicode="&#x0057;" d="M896.845,687.148C896.845,687.148,831.117,687.148,831.117,687.148C831.117,687.148,831.117,1023.771,831.117,1023.771C831.117,1023.771,192.883,1023.771,192.883,1023.771C192.883,1023.771,192.883,687.148,192.883,687.148C192.883,687.148,127.155,687.148,127.155,687.148C57.128,687.148,0,630.634,0,560.606C0,560.606,0,320.424,0,320.424C0,250.397,57.128,193.269,127.155,193.269C127.155,193.269,192.883,193.269,192.883,193.269C192.883,193.269,192.883,1,192.883,1C192.883,1,831.117,1,831.117,1C831.117,1,831.117,193.269,831.117,193.269C831.117,193.269,896.845,193.269,896.845,193.269C966.872,193.269,1024,250.397,1024,320.424C1024,320.424,1024,560.606,1024,560.606C1024,630.634,966.872,687.148,896.845,687.148C896.845,687.148,896.845,687.148,896.845,687.148M254.311,962.344C254.311,962.344,769.689,962.344,769.689,962.344C769.689,962.344,769.689,687.148,769.689,687.148C769.689,687.148,254.311,687.148,254.311,687.148C254.311,687.148,254.311,962.344,254.311,962.344C254.311,962.344,254.311,962.344,254.311,962.344M769.689,62.428C769.689,62.428,254.311,62.428,254.311,62.428C254.311,62.428,254.311,385.537,254.311,385.537C254.311,385.537,769.689,385.537,769.689,385.537C769.689,385.537,769.689,62.428,769.689,62.428C769.689,62.428,769.689,62.428,769.689,62.428M962.572,320.424C962.572,284.182,933.087,254.696,896.845,254.696C896.845,254.696,831.117,254.696,831.117,254.696C831.117,254.696,831.117,446.965,831.117,446.965C831.117,446.965,192.883,446.965,192.883,446.965C192.883,446.965,192.883,254.696,192.883,254.696C192.883,254.696,127.155,254.696,127.155,254.696C90.913,254.696,61.428,284.182,61.428,320.424C61.428,320.424,61.428,560.606,61.428,560.606C61.428,596.235,90.913,625.72,127.155,625.72C127.155,625.72,896.845,625.72,896.845,625.72C933.087,625.72,962.572,596.235,962.572,560.606C962.572,560.606,962.572,320.424,962.572,320.424C962.572,320.424,962.572,320.424,962.572,320.424" class="icon-printer-1"/><glyph unicode="&#x0058;" d="M615.514,89.966C615.514,89.966,589.925,84.383,589.925,84.383C568.291,80.15,553.775,59.679,556.893,37.859C559.079,27.391,565.034,18.132,573.641,11.805C582.76,5.524,593.926,3.058,604.813,4.826C615.048,6.687,625.284,9.013,635.519,11.805C666.923,14.271,683.905,49.862,666.039,75.823C654.827,92.106,633.565,98.062,615.514,89.966C615.514,89.966,615.514,89.966,615.514,89.966M919.785,643.61C922.53,635.189,927.927,627.838,935.138,622.673C945.885,615.229,959.424,613.182,971.892,617.09C993.387,624.395,1005.018,647.611,997.946,669.198C994.689,678.968,990.968,689.204,987.246,698.509C975.614,727.866,936.534,733.635,916.947,708.884C907.828,697.392,905.548,681.899,910.945,668.268C914.202,659.893,916.993,651.519,919.785,643.61C919.785,643.61,919.785,643.61,919.785,643.61M749.505,150.448C749.505,150.448,727.173,136.956,727.173,136.956C707.446,125.604,700.607,100.434,711.82,80.661C714.983,75.59,719.077,71.17,723.916,67.634C737.362,58.981,754.669,58.981,768.114,67.634C768.114,67.634,794.634,83.918,794.634,83.918C820.966,101.83,818.035,141.516,789.376,155.38C776.07,161.8,760.345,160.637,748.109,152.309C748.109,152.309,749.505,150.448,749.505,150.448M1024,528.694C1019.627,560.284,982.686,575.265,957.563,555.678C948.165,548.327,942.349,537.347,941.651,525.437C941.651,516.597,941.651,507.758,941.651,498.918C941.372,485.333,947.839,472.445,958.866,464.49C965.519,459.698,973.474,457.092,981.663,457.046C1004.553,456.534,1023.488,474.632,1024,497.522C1024,508.688,1024,517.993,1024,528.694C1024,528.694,1024,528.694,1024,528.694M913.271,258.851C895.08,272.622,869.119,268.854,855.581,250.476C850.463,243.498,844.88,236.984,839.297,230.005C824.409,212.884,826.503,186.831,843.95,172.315C843.95,172.315,846.741,169.989,846.741,169.989C864.281,157.892,888.102,160.87,902.105,176.967C908.619,184.877,915.132,192.786,921.181,201.16C935.045,219.258,931.509,245.172,913.271,258.851C913.271,258.851,913.271,258.851,913.271,258.851M973.753,407.73C952.073,414.15,929.229,402.193,922.111,380.745C922.111,380.745,913.737,356.087,913.737,356.087C907.781,339.106,913.644,320.217,928.159,309.563C930.997,307.562,934.161,305.98,937.464,304.91C958.679,296.722,982.453,307.376,990.502,328.638C994.224,338.408,997.481,348.178,1000.738,357.948C1006.041,379.024,994.317,400.658,973.753,407.73C973.753,407.73,973.753,407.73,973.753,407.73M435.929,85.779C399.546,92.525,364.234,103.924,330.783,119.742C330.783,119.742,330.783,119.742,330.783,119.742C322.874,123.464,314.964,127.186,307.521,131.373C307.521,131.373,307.521,131.373,307.521,131.373C293.284,138.957,279.606,147.517,266.579,156.962C71.734,293,24.604,561.494,161.433,755.734C189.906,796.769,225.544,832.407,266.579,860.88C266.579,860.88,266.579,860.88,266.579,860.88C411.317,960.582,602.115,962.21,748.574,865.067C748.574,865.067,716.472,818.542,716.472,818.542C707.167,805.515,712.75,796.21,728.569,797.606C728.569,797.606,868.142,810.168,868.142,810.168C883.263,810.68,893.731,825.521,889.079,839.944C889.079,839.944,853.255,973.934,853.255,973.934C849.067,991.149,837.901,993.01,829.527,979.983C829.527,979.983,796.96,933.458,796.96,933.458C687.859,1007.153,554.427,1035.673,424.763,1013.015C424.763,1013.015,385.682,1004.641,385.682,1004.641C385.682,1004.641,385.682,1004.641,385.682,1004.641C273.883,975.237,175.391,908.614,106.534,815.751C106.534,815.751,106.534,815.751,106.534,815.751C106.534,815.751,93.507,803.654,93.507,803.654C93.507,803.654,83.272,787.836,83.272,787.836C83.272,787.836,83.272,787.836,83.272,787.836C24.883,698.462,-4.055,593.037,0.458,486.356C0.458,486.356,0.458,486.356,0.458,486.356C0.458,476.121,0.458,465.42,0.458,455.185C0.458,455.185,0.458,455.185,0.458,455.185C0.458,444.949,3.249,434.249,4.645,424.013C23.069,318.17,74.339,220.84,151.198,145.796C151.198,145.796,151.198,145.796,151.198,145.796C171.715,125.278,193.954,106.622,217.728,89.966C278.629,46.931,348.137,17.713,421.506,4.361C443.419,1.476,463.797,16.178,468.031,37.859C472.311,59.958,457.981,81.313,435.929,85.779C435.929,85.779,435.929,85.779,435.929,85.779M487.106,841.339C468.589,841.339,453.608,826.358,453.608,807.842C453.608,807.842,453.608,476.121,453.608,476.121C453.608,476.121,756.949,319.333,756.949,319.333C761.741,317.007,766.998,315.75,772.302,315.611C797.704,314.773,814.5,341.758,802.543,364.183C799.193,370.417,793.982,375.395,787.655,378.419C787.655,378.419,520.138,517.993,520.138,517.993C520.138,517.993,520.138,807.842,520.138,807.842C520.138,826.172,505.436,841.107,487.106,841.339C487.106,841.339,487.106,841.339,487.106,841.339" class="icon-clock"/><glyph unicode="&#x0059;" d="M987.327,1023.105C981.787,1023.034,976.316,1021.842,971.196,1019.598C971.196,1019.598,694.155,882.831,694.155,882.831C694.155,882.831,380.644,1019.598,380.644,1019.598C380.644,1019.598,380.644,1019.598,380.644,1019.598C380.644,1019.598,375.033,1023.105,375.033,1023.105C375.033,1023.105,357.498,1023.105,357.498,1023.105C357.498,1023.105,351.186,1023.105,351.186,1023.105C351.186,1023.105,351.186,1023.105,351.186,1023.105C351.186,1023.105,22.244,873.713,22.244,873.713C8.918,867.822,0.361,854.636,0.502,840.047C0.502,840.047,0.502,35.577,0.502,35.577C0.572,23.304,6.954,11.941,17.335,5.419C28.065,-0.473,40.971,-0.473,51.702,5.419C51.702,5.419,365.915,145.692,365.915,145.692C365.915,145.692,680.128,5.419,680.128,5.419C680.128,5.419,680.128,5.419,680.128,5.419C688.825,1.561,698.784,1.561,707.481,5.419C707.481,5.419,707.481,5.419,707.481,5.419C707.481,5.419,999.952,151.303,999.952,151.303C1013.068,156.073,1022.466,167.645,1024.5,181.462C1024.5,181.462,1024.5,986.633,1024.5,986.633C1024.5,1007.043,1007.737,1023.525,987.327,1023.105C987.327,1023.105,987.327,1023.105,987.327,1023.105M329.444,206.01C329.444,206.01,70.639,92.388,70.639,92.388C70.639,92.388,70.639,812.694,70.639,812.694C70.639,812.694,329.444,930.524,329.444,930.524C329.444,930.524,329.444,206.01,329.444,206.01M658.386,92.388C658.386,92.388,402.386,206.01,402.386,206.01C402.386,206.01,402.386,930.524,402.386,930.524C402.386,930.524,658.386,812.694,658.386,812.694C658.386,812.694,658.386,92.388,658.386,92.388M950.856,204.607C950.856,204.607,732.029,95.194,732.029,95.194C732.029,95.194,732.029,817.604,732.029,817.604C732.029,817.604,950.856,927.718,950.856,927.718C950.856,927.718,950.856,204.607,950.856,204.607" class="icon-map"/><glyph unicode="&#x005a;" d="M459.545,121.369C211.101,116.594,5.584,313.713,0,562.156C5.584,810.515,211.143,1007.505,459.545,1002.518C707.775,1007.292,913.078,810.345,918.663,562.156C913.292,313.798,707.946,116.594,459.545,121.369C459.545,121.369,459.545,121.369,459.545,121.369M459.545,917.259C258.334,922.034,91.056,763.324,85.259,562.156C90.843,360.818,258.163,201.853,459.545,206.628C660.84,201.853,828.075,360.861,833.404,562.156C827.82,763.282,660.67,922.034,459.545,917.259C459.545,917.259,459.545,917.259,459.545,917.259M980.475,22.042C969.52,22.085,958.948,26.348,951.061,33.979C951.061,33.979,724.699,250.109,724.699,250.109C708.159,266.735,708.159,293.591,724.699,310.217C741.367,327.013,768.565,327.013,785.233,310.217C785.233,310.217,1011.595,93.66,1011.595,93.66C1028.135,77.034,1028.135,50.178,1011.595,33.552C1003.197,25.666,991.985,21.531,980.475,22.042C980.475,22.042,980.475,22.042,980.475,22.042" class="icon-search-2"/><glyph unicode="&#x0061;" d="M1000.379,766.386C858.505,561.488,729.648,347.881,614.557,126.783C572.229,43.157,455.265,36.695,404.04,115.171C401.605,118.917,399.358,122.756,397.298,126.783C286.327,349.005,161.216,563.923,22.713,770.132C-32.07,847.952,17.843,955.832,112.613,964.448C117.015,964.823,121.322,965.01,125.724,964.916C125.724,964.916,901.114,964.916,901.114,964.916C995.509,964.916,1054.6,862.748,1007.402,780.901C1005.249,777.156,1002.907,773.597,1000.379,770.132" class="icon-arrow-down"/><glyph unicode="&#x0062;" d="M24.121,258.554C165.995,463.452,294.852,677.059,409.943,898.157C452.271,981.783,569.236,988.245,620.46,909.769C622.895,906.023,625.142,902.184,627.202,898.157C738.173,675.935,863.285,461.017,1001.787,254.808C1056.57,176.988,1006.657,69.108,911.887,60.492C907.486,60.117,903.178,59.93,898.776,60.024C898.776,60.024,123.386,60.024,123.386,60.024C28.991,60.024,-30.1,162.192,17.098,244.039C19.251,247.784,21.593,251.343,24.121,254.808" class="icon-arrow-up"/><glyph unicode="&#x0063;" d="M1024,628.733C1024,628.733,651.916,653.216,651.916,653.216C651.916,653.216,511.814,1005.24,511.814,1005.24C511.814,1005.24,371.665,653.216,371.665,653.216C371.665,653.216,0,628.733,0,628.733C0,628.733,285.091,386.697,285.091,386.697C285.091,386.697,191.535,19.5,191.535,19.5C191.535,19.5,511.814,221.926,511.814,221.926C511.814,221.926,832.047,19.5,832.047,19.5C832.047,19.5,738.537,386.697,738.537,386.697C738.537,386.697,1024,628.733,1024,628.733C1024,628.733,1024,628.733,1024,628.733" class="icon-Vector"/><glyph unicode="&#x0064;" d="M189.135,0.5C170.339,0.567,151.826,5.082,135.113,13.682C92.88,35.287,66.505,78.92,67.007,126.355C67.007,126.355,67.007,902.354,67.007,902.354C67.25,948.431,93.512,990.413,134.838,1010.789C175.765,1032.065,225.204,1028.357,262.498,1001.217C262.498,1001.217,262.498,1001.217,262.498,1001.217C437.627,876.068,673.094,732.403,892.398,616.748C933.125,594.649,958.225,551.777,957.562,505.449C957.334,461.086,932.124,420.638,892.398,400.897C704.833,302.112,463.245,169.98,258.888,23.843C238.727,8.809,214.282,0.629,189.135,0.5C189.135,0.5,189.135,0.5,189.135,0.5M191.449,1020.519C172.355,1020.503,153.536,1015.972,136.525,1007.298C96.548,987.564,71.154,946.936,70.93,902.354C70.93,902.354,70.93,126.355,70.93,126.355C70.432,80.399,95.972,38.119,136.878,17.173C175.329,-2.878,221.877,0.955,256.534,27.02C461.205,173.315,702.871,305.564,890.555,404.349C928.986,423.474,953.384,462.6,953.639,505.527C954.306,550.431,929.986,591.993,890.515,613.414C671.094,728.95,435.43,872.734,260.222,997.882C260.222,997.882,260.222,997.882,260.222,997.882C240.308,1012.59,216.204,1020.523,191.449,1020.519C191.449,1020.519,191.449,1020.519,191.449,1020.519" class="icon-arrow-right-str"/><glyph unicode="&#x0065;" d="M835.44,0.5C854.236,0.567,872.749,5.082,889.462,13.682C931.695,35.287,958.07,78.92,957.568,126.355C957.568,126.355,957.568,902.354,957.568,902.354C957.324,948.431,931.063,990.413,889.736,1010.789C848.81,1032.065,799.371,1028.357,762.077,1001.217C762.077,1001.217,762.077,1001.217,762.077,1001.217C586.948,876.068,351.48,732.403,132.176,616.748C91.45,594.649,66.35,551.777,67.013,505.449C67.24,461.086,92.451,420.638,132.176,400.897C319.742,302.112,561.33,169.98,765.686,23.843C785.848,8.809,810.293,0.629,835.44,0.5C835.44,0.5,835.44,0.5,835.44,0.5M833.125,1020.519C852.219,1020.503,871.039,1015.972,888.05,1007.298C928.026,987.564,953.421,946.936,953.645,902.354C953.645,902.354,953.645,126.355,953.645,126.355C954.143,80.399,928.603,38.119,887.696,17.173C849.246,-2.878,802.697,0.955,768.04,27.02C563.37,173.315,321.704,305.564,134.02,404.349C95.589,423.474,71.191,462.6,70.936,505.527C70.269,550.431,94.589,591.993,134.059,613.414C353.481,728.95,589.145,872.734,764.353,997.882C764.353,997.882,764.353,997.882,764.353,997.882C784.267,1012.59,808.37,1020.523,833.125,1020.519C833.125,1020.519,833.125,1020.519,833.125,1020.519" class="icon-arrow-left-str"/></font>
</defs>
</svg>
